<svg id="Layer_1" data-name="Layer 1" xmlns="http://www.w3.org/2000/svg" viewBox="0 0 1204.66 1187.05"><defs><style>.cls-1{fill:#030303;}.cls-2{fill:#060606;}.cls-3{fill:#080707;}.cls-4{fill:#010101;}.cls-5{fill:#010201;}.cls-6{fill:#040404;}.cls-7{fill:#9c9c9d;}.cls-8{fill:#9c9c9c;}.cls-9{fill:#b3b3b3;}.cls-10{fill:#fff;}.cls-11{fill:#fefefe;}.cls-12{fill:#f7f6f6;}.cls-13{fill:#e9e8e8;}.cls-14{fill:#8b4b27;}.cls-15{fill:#8b4a27;}.cls-16{fill:#f5f5f5;}.cls-17{fill:#14150f;}.cls-18{fill:#0e0d0c;}.cls-19{fill:#f2ea1d;}.cls-20{fill:#f1e91e;}</style></defs><title>2</title><path class="cls-1" d="M549,193.14c7.76,1.36,15.6,2.4,23.28,4.14,8.59,1.95,17,4.76,23.52,11.08.88.85,3.66,2.07,1.32,3.71-1.72,1.21-3.76,4-6.39,1.79-8.68-7.19-19.18-9.59-29.84-11.16-16.46-2.43-33-3.62-49.57-.77C484.89,206.48,464,220,447.68,241.07c-.3.39-.52.85-.81,1.25-1.47,2.11-3.23,3.55-5.81,1.78s-2-3.89-.49-6A95.27,95.27,0,0,1,455.4,221.3c16.4-14.87,35.42-24.25,57.47-27.2.81-.11,1.68-.09,2.15-1Z" transform="translate(-122.36 -193.14)"/><path class="cls-2" d="M450.08,193.14c2.82,3.44,2.31,5.83-2,7.49-4.56,1.76-7.36,5.55-9.85,9.52-5.77,9.22-9.23,19.39-12,29.82-.74,2.84-1.52,5.55-5,4.7s-3.08-3.47-2.34-6.42a133.79,133.79,0,0,1,8.51-24.32c4-8.5,9.34-15.93,17.66-20.79Z" transform="translate(-122.36 -193.14)"/><path class="cls-2" d="M357.17,193.14c13,12.3,22.77,27.08,32.5,41.91,1.41,2.15,2.15,4.28-.47,6-2.83,1.86-4.47.21-6-2.13-9.19-13.78-18.11-27.78-30.25-39.29-2.43-2.31-1.51-4.39.26-6.49Z" transform="translate(-122.36 -193.14)"/><path class="cls-3" d="M389.14,193.14c15.25,11.72,20.15,28.06,20.74,46.35.09,2.76-.41,5.24-3.74,5.26s-4-2.48-3.93-5.21a56.33,56.33,0,0,0-6.09-26.83,32.55,32.55,0,0,0-10-12.16c-3.13-2.23-3.52-4.57-.93-7.41Z" transform="translate(-122.36 -193.14)"/><path class="cls-4" d="M676.55,1321.28c-26,34.9-61,53.37-103.77,57.76-33.24,3.41-65.46-.29-94.89-17.24-38-21.9-61.49-55.21-69.3-98-10.6-58,6.84-108,49.34-148.67,20-19.16,45-29.05,72.51-31.81,54-5.43,99.11,14.07,137.58,50.87,3.58,3.42,5.14,4.47,9.37.26,23.87-23.69,51.73-40.57,84.8-48.48,77.7-18.6,156.12,27.72,176.2,105.36,14.93,57.7-1.12,107.69-42.22,149.66-31.64,32.32-71.31,42.72-115.41,38-41.48-4.39-75.09-23.63-101.9-55.26C678.12,1322.92,677.31,1322.1,676.55,1321.28Z" transform="translate(-122.36 -193.14)"/><path class="cls-4" d="M399.38,586.56a172.83,172.83,0,0,1-30.12,31.64c-26.25,21.09-56.17,32.08-89.91,30-38.47-2.31-68.62-20.78-92.08-50.8a147.81,147.81,0,0,1-23.12-42.12c-1-2.82-2.34-3.61-5.3-3.72-11.12-.42-22.22-1.29-33.34-1.87-2.24-.12-3.16-.75-3.15-3.2q.14-32,0-63.93c0-2.24.86-3.18,2.83-3.93,8.1-3.11,16.31-5.63,25.14-5,4.33.33,6.25-1.37,7.18-5.87,8.54-41.68,28.17-76.08,66.22-97.66,23.5-13.32,49.14-17.24,75.89-15.58,24.62,1.52,47.67,7.81,68.52,21.3a111.63,111.63,0,0,1,32.56,32.34c6.51-6.78,12.91-13.5,20-19.48,19.47-16.4,40.89-28.73,66.41-33.05,24.13-4.08,47.08.21,68.75,10.56,38.88,18.58,65.87,48,78.73,89.64.84,2.72,2.09,3.61,4.71,4.1a241,241,0,0,1,55,16.78c2.6,1.17,3.66,2.52,3.64,5.52-.15,21.81-.21,43.62,0,65.42,0,4.2-1.22,4.43-4.73,3.66a523.16,523.16,0,0,0-55-8.9c-4.63-.5-5.4,1.46-6.38,4.92-7.05,24.67-18.77,46.77-37.21,64.87-21.7,21.3-48.19,32.11-78.19,35.4-49.42,5.41-84.78-17.55-113-55.29C402.17,590.66,401,588.85,399.38,586.56Z" transform="translate(-122.36 -193.14)"/><path class="cls-4" d="M1326.88,511.39c.4,9.63,0,19.23-2.57,28.61-4.7,16.76-11.77,25.22-31.49,27.93-33.58,4.61-65.49,14.91-94.66,32.74a12.08,12.08,0,0,0-5.38,6.67c-12.12,32.92-31.39,60.24-62.41,78-21.15,12.12-44.23,17.17-68.41,18.63-63.25,3.84-125.12-31.72-150.19-103-3.15-9-6.77-13.57-17.12-14.83-19.85-2.41-39.56-6.55-58.5-13.45a76.52,76.52,0,0,1-14.3-6.89c-9.46-5.89-14.18-14.45-15.17-25.45-1.26-14.18-.63-28.18,3-42a45.5,45.5,0,0,1,1.55-4.71c4-10,5.09-10.36,14-5.26,22.77,13,47.05,20.27,73.5,19.55,2.89-.08,4.45-1.2,6.12-3.27,11.1-13.7,20.55-28.63,31.32-42.52,21.52-27.76,50.54-44.41,84.73-50.94,55.44-10.58,103.39,5,143.59,44.37,14,13.68,23.85,30.13,30.51,48.46,1,2.78,2.17,3.68,5.16,3.91,18.75,1.42,37.5,2.13,56.28.85,16.4-1.13,32.7-2.92,47.89-10a36.7,36.7,0,0,0,10.66-7.22,5.23,5.23,0,0,1,3.76-1.88c7.08-.37,7.33-.48,8,6.67C1327.24,501.4,1326.88,506.41,1326.88,511.39Z" transform="translate(-122.36 -193.14)"/><path class="cls-4" d="M517.94,800.73c0,10.16-5.1,17.43-13.67,20.87-11.84,4.75-24.14,3.6-36.37,2.58a328.28,328.28,0,0,0-61.75.78c-22.95,2.41-45.81,5.72-68.75,8.16-8.56.91-17.27,1.07-25.86-.62-13.77-2.7-20.52-14.76-15.07-27.75,8.72-20.82,25.29-33.17,45.68-41.07a121,121,0,0,1,43.73-8.53c17.25,0,33.93-4.27,51-4.75s33.9.25,49.79,7.27C506,766.17,515.87,781.41,517.94,800.73Z" transform="translate(-122.36 -193.14)"/><path class="cls-4" d="M942.58,331.17c-5.38,3.35-8.92,3.22-11.42-.14s-1.5-7.09,2.82-10.71c1.28-1.07,2.59-2.09,3.91-3.11a20.51,20.51,0,0,0,3.4-3c-4.19.91-7.64,3.36-11.25,5.47-5,2.94-9,2.5-11.27-1.25s-.79-7.38,4.36-10.49a177.84,177.84,0,0,1,43.61-18.86c.62-.18,1.32-.12,1.5-1.35a118,118,0,0,0-46.27,12c-4.92,2.35-9.62,5.17-14.42,7.78-4.41,2.39-7.7,1.79-9.95-1.81s-1.23-7.19,2.89-9.72c24.18-14.83,49.94-24.91,78.57-27,20.23-1.48,39.63,1.18,58.41,8.9,5.1,2.1,8,4.92,7.1,10.82a66.42,66.42,0,0,0-.26,10.47c.09,5.84-1.82,8-7.59,8.9-21.28,3.36-42.34,7.71-62.32,16-8.09,3.38-16.11,7.08-20.51,15.62-1.49,2.9-4.66,3-7.54,2.23s-4.27-3.06-4.43-5.93A26.92,26.92,0,0,1,942.58,331.17Z" transform="translate(-122.36 -193.14)"/><path class="cls-4" d="M1248,321c-.61-.56-1.22-1.14-1.82-1.71a110.67,110.67,0,0,0-31.77-21.09c-23.78-10.69-49-14.81-76.2-16.34a144.59,144.59,0,0,1,35-6.39c15.2-.78,29.81,1.13,42.23,11.17,4,3.28,7.91,3.3,10.59.25s2-7.36-2-10.75c-11-9.2-24-13.2-38.07-13.91-31.78-1.6-61.17,7.64-89.59,20.74-5.75,2.66-6.35,7.65-1.79,11.87.58.53,1.47.76,1.49,1.8-2.23,2-4.54,3.85-6.73,5.89-3.45,3.23-3.93,7.18-1.32,10.06,2.8,3.1,6.42,3.24,10.14.08a40.23,40.23,0,0,1,14.86-7.71c14.65-4.39,29.19-2.93,43.66.76,27.07,6.91,50.7,20.8,73.37,36.56,2.93,2,5.81,4.09,9.52,1.94,4.07-2.37,4-6,2.58-10.06,3.78.44,7.21.26,8.8-3.42C1252.6,326.8,1250.91,323.61,1248,321Zm-46.24-12.61a84.72,84.72,0,0,1,35.18,21.49C1225.28,322.41,1213.64,315.17,1201.74,308.34Z" transform="translate(-122.36 -193.14)"/><path class="cls-4" d="M1066,797.59c31.71,1.15,56.41,18.52,73.25,48.23,2.43,4.28.17,7.61-4.71,7.38-21.71-1-43.31-3.19-64.94-5.26-23.33-2.25-46.73-2.35-70,1.12-4.67.69-6.27-.89-4.39-5C1007,818.29,1029.85,797.54,1066,797.59Z" transform="translate(-122.36 -193.14)"/><path class="cls-4" d="M760.63,939.52c39.26,2.2,76,10.61,108.72,32.43a127.5,127.5,0,0,1,44.25,50.22c1.27,2.58,1.93,5.15-.9,7-2.54,1.67-4.62.44-6.54-1.58-31.1-32.46-69-53.79-111.24-68.1a255.54,255.54,0,0,0-34.46-9.22,30.12,30.12,0,0,1-3.85-1,4.68,4.68,0,0,1-3.49-5.34c.29-2.65,2.09-4.07,4.66-4.42A18.13,18.13,0,0,1,760.63,939.52Z" transform="translate(-122.36 -193.14)"/><path class="cls-5" d="M570,947.39h9c1.33,0,3.13-.28,3.44,1.22.37,1.85-1.49,2.3-2.93,2.71-11.44,3.28-22.75,6.95-33.83,11.28-41.24,16.12-78.65,38.82-113.39,66.09-1.38,1.09-3,3.44-4.54,2.18-2-1.61-.37-3.91.8-5.77q37-58.78,104.92-73.67A167.49,167.49,0,0,1,570,947.39Z" transform="translate(-122.36 -193.14)"/><path class="cls-1" d="M362.17,240.87a3.19,3.19,0,0,1-2,3.6,3.28,3.28,0,0,1-4.09-.79c-13.14-13.4-30.36-15.38-47.64-16.56-33.65-2.31-61.5,11.89-87.26,31.59-2.25,1.71-4.35,3.6-6.51,5.42s-4.29,2.25-6.16.2c-2.07-2.28-.64-4.34,1.27-6,20.77-17.92,43.79-31.83,71.05-37a114.34,114.34,0,0,1,64.54,5.89,39.93,39.93,0,0,1,15.16,10.21C361.4,238.39,362.4,239.35,362.17,240.87Z" transform="translate(-122.36 -193.14)"/><path class="cls-1" d="M307.49,238.84c12.95.1,21.87.7,30.71,2.31a6.38,6.38,0,0,1,1,.14c2.45.82,5.63,1,5,4.85-.62,4-3.77,3.24-6.26,2.72a125.18,125.18,0,0,0-22.73-2.46c-34.13-.8-65.14,8.3-92.3,29.41a24.28,24.28,0,0,1-2.8,2.06c-1.87,1.08-3.88,1.49-5.25-.66a3.78,3.78,0,0,1,.86-5.31,123.5,123.5,0,0,1,16.17-11.6C256.37,245.57,283,238.72,307.49,238.84Z" transform="translate(-122.36 -193.14)"/><path class="cls-6" d="M522,212.31c9.42.23,17.75,2.05,25.56,6,2.28,1.17,3.23,3.1,2.22,5.34s-3.11,2.68-5.45,1.51c-18-9-35.31-5.53-52.4,2.76a123.14,123.14,0,0,0-26.34,17.7c-.88.75-1.71,1.57-2.62,2.28-2,1.55-4.06,1.75-5.77-.2s-.91-3.74.78-5.23c3.11-2.75,6.14-5.6,9.44-8.11,14.7-11.15,30.53-19.82,49.32-21.69C518.69,212.51,520.67,212.4,522,212.31Z" transform="translate(-122.36 -193.14)"/><path class="cls-7" d="M674.73,1275.15c-5.65,11.88-9.43,23.63-16.85,33.66-19.84,26.81-46.54,42-79.15,47.13-24.84,3.94-49.47,3.09-73.15-6-41.41-15.88-66.29-46.76-74.95-89.45-9.71-47.85,4.54-89.79,38.07-124.81,17.5-18.27,39.89-28.15,65-30.31,52.47-4.52,94.22,16.78,128.45,55.15a79.18,79.18,0,0,1,8.13,10.1c2.43,3.85,3.73,2.6,5.73-.22a159,159,0,0,1,51.42-46.48c42-24,85.3-27.82,128.63-4.46,35.67,19.24,57.18,50,63.35,90,8.41,54.53-12.45,97.73-56.13,129.79-23.38,17.16-50.9,20.89-79.35,17.87-40.11-4.26-71.11-24-94.53-56.32-5.08-7-8.51-15-12.73-22.52C676.22,1277.47,675.68,1276.68,674.73,1275.15Z" transform="translate(-122.36 -193.14)"/><path class="cls-8" d="M399.46,558.5a141.07,141.07,0,0,1-24.19,34.61C355.34,614,332,628.67,302.93,632.88c-34.82,5.06-65.32-4.66-90.54-28.94-31.73-30.55-46.09-68.56-43.7-112.37,1.84-33.73,12.74-64.33,36.47-89.3,19.66-20.68,44.17-31.21,72.44-33.28,20.41-1.49,40.55.12,59.81,7.38,28.39,10.69,49.7,29,60.18,58.62,3.24-2.14,4.71-5.57,6.9-8.34,19.34-24.45,42.27-44.1,72.46-53.86,23-7.44,45.7-5.28,67.59,4,39.81,16.95,67,45.71,77.62,88.14,6.71,26.71,3.22,53.43-4.3,79.61-6.68,23.26-17.93,43.95-36,60.39-24.8,22.54-54.68,30.63-87.39,28.87-28.65-1.54-50.48-16.72-69.13-37.25a136.34,136.34,0,0,1-22.2-32.37C402.2,562.32,401.53,560.2,399.46,558.5Z" transform="translate(-122.36 -193.14)"/><path class="cls-9" d="M1053.73,696c-58.24.23-107.44-33.26-131.1-89-7.69-18.09-12.18-36.71-12.12-56.49,0-11-1.1-21.9-1.82-32.84a9.72,9.72,0,0,1,2.28-7.26c10.24-12.67,19.51-26.05,29.06-39.24,20.73-28.63,49.35-45.6,83.84-52,50.2-9.36,94.34,4.16,131.22,39,30.33,28.65,43.36,64.79,39.31,106.38-3,31.23-14.16,59.63-33.76,84.36-20,25.29-46.72,39.18-78.13,44.69A184.85,184.85,0,0,1,1053.73,696Z" transform="translate(-122.36 -193.14)"/><path class="cls-10" d="M375.79,794.66a167,167,0,0,1-22.35-1.31c-4-.55-7.91-1.42-10.57-4.85-2.37-3-3.58-6.39-2-10.2a8.89,8.89,0,0,1,8.49-5.83c9.46-.24,18.93-.37,28.39-.57q10.47-.23,20.93-.51c5.35-.14,8.05,2.29,8.31,7.58.08,1.66.12,3.32.11,5,0,6.2-2.26,8.62-8.47,9.44A173,173,0,0,1,375.79,794.66Z" transform="translate(-122.36 -193.14)"/><path class="cls-11" d="M444,794.23a53.38,53.38,0,0,1-18.13-2.76c-6.25-2.18-10.53-14.44-7.09-20,1.18-1.87,3.05-2.47,5.07-2.76,14-2.06,28.07-2.67,42.15-.24,6,1,8.28,3.2,8.83,8.9.64,6.7-1.58,11.18-6.87,12.87A78.86,78.86,0,0,1,444,794.23Z" transform="translate(-122.36 -193.14)"/><path class="cls-12" d="M487.14,785.46c.31-2,.64-4.34,3.91-4.11,1.77.12,7.64,7.18,7.5,9.15s-1.3,3.28-3.59,3C491.79,793.17,487,788.52,487.14,785.46Z" transform="translate(-122.36 -193.14)"/><path class="cls-13" d="M328.1,788.29c.67,3.41-1,4.24-3.54,4-1.31-.15-3.79.59-3.35-1.54.53-2.53,3.05-4.41,5.41-5.08S327.79,787.56,328.1,788.29Z" transform="translate(-122.36 -193.14)"/><path class="cls-4" d="M794.09,1341.2c-57.81,1.18-111-47.28-110.22-111.61.77-62.3,53.2-110,112.78-108.83,56.2,1.15,109.14,47.78,107.94,112.62C903.44,1295.34,851.58,1342.43,794.09,1341.2Z" transform="translate(-122.36 -193.14)"/><path class="cls-4" d="M554.42,1341.2c-57.88,1.23-111.32-47.35-110.31-112,1-62,53.25-109.84,113.19-108.4,56,1.35,108.67,47.87,107.53,112.53C663.73,1295.3,611.85,1342.39,554.42,1341.2Z" transform="translate(-122.36 -193.14)"/><path class="cls-4" d="M289,601.79A100.92,100.92,0,1,1,390.18,501.25C390.11,556.76,344.65,601.87,289,601.79Z" transform="translate(-122.36 -193.14)"/><path class="cls-4" d="M607.13,499.28c-.09,48-31.23,88.57-76.78,99.91-41,10.21-83.8-9-106.37-47.64-26.44-45.29-14.48-105,27.36-136.45,41.57-31.28,100-23.49,132.88,17.71C599.41,451.84,607.18,474.37,607.13,499.28Z" transform="translate(-122.36 -193.14)"/><path class="cls-4" d="M1052.45,441.89A112.9,112.9,0,1,1,939.62,551.82,112.93,112.93,0,0,1,1052.45,441.89Z" transform="translate(-122.36 -193.14)"/><path class="cls-10" d="M793.91,1323.27c-50.78,0-92.11-41.46-92-92.38.12-52.72,44.42-93,93.91-92.12,48.3.81,91.46,41.3,90.84,94.28C886.08,1282.28,844.42,1323.27,793.91,1323.27Z" transform="translate(-122.36 -193.14)"/><path class="cls-10" d="M554.45,1323.27a92.22,92.22,0,0,1-92.31-92.07c0-52.78,44.28-93.3,94.11-92.44s90.55,42.26,90.53,94C646.75,1282.14,604.81,1323.27,554.45,1323.27Z" transform="translate(-122.36 -193.14)"/><path class="cls-10" d="M376.16,501.08c0,47.43-39.17,86.61-86.6,86.67a87.09,87.09,0,0,1-87.15-87.1C202.46,452.3,241.62,414,291,414,337.27,414.07,376.16,453.81,376.16,501.08Z" transform="translate(-122.36 -193.14)"/><path class="cls-10" d="M593.31,499.07c-1.54,35.11-16.11,62.78-47.75,79.53-34.56,18.3-75,9.1-101-21.9-30.67-36.62-26.34-94.07,9.46-125.63,45-39.63,114-20.72,133.82,36.67A96.55,96.55,0,0,1,593.31,499.07Z" transform="translate(-122.36 -193.14)"/><path class="cls-10" d="M1157.27,555.08c0,58.31-47.22,104.5-106.83,104.48-56,0-102.9-48-102.78-105.08.13-58.37,48.69-105.91,107.38-104.5C1111.68,451.34,1157.62,498.31,1157.27,555.08Z" transform="translate(-122.36 -193.14)"/><path class="cls-4" d="M772.76,1284.39c-29,0-51.29-22.35-51.28-51.42s22.4-51.17,51.54-51.16c28.86,0,51.05,22.47,51,51.67C824,1262.09,801.57,1284.39,772.76,1284.39Z" transform="translate(-122.36 -193.14)"/><path class="cls-4" d="M628.25,1233.55c.83,27.27-23.45,51.34-51.87,51.06-27.15-.26-51.27-23.68-50.93-52.21.32-27,23.61-51.45,52.34-50.73C606.15,1182.38,628.27,1204.53,628.25,1233.55Z" transform="translate(-122.36 -193.14)"/><path class="cls-4" d="M247,510.85a44.29,44.29,0,1,1,44.31,44.26A44,44,0,0,1,247,510.85Z" transform="translate(-122.36 -193.14)"/><path class="cls-4" d="M543,508.39a44.33,44.33,0,1,1-43.9-44.26A44.06,44.06,0,0,1,543,508.39Z" transform="translate(-122.36 -193.14)"/><path class="cls-4" d="M1044.87,583.09a47.25,47.25,0,0,1-47.66-47.81c0-27.12,21.34-48.52,48.29-48.43,26.14.08,48,22,48,48.09C1093.44,561.92,1072.07,583.1,1044.87,583.09Z" transform="translate(-122.36 -193.14)"/><path class="cls-14" d="M768.08,1259.07a25.94,25.94,0,0,1-26.19-26.16c.05-15.11,13.65-26.48,26.58-25.93,14.62.63,26.24,11.74,26.19,26.31C794.6,1248.36,781,1260.32,768.08,1259.07Z" transform="translate(-122.36 -193.14)"/><path class="cls-15" d="M605.84,1231.37c.09,14.27-12,26.54-26.15,26.62s-26.54-12-26.62-26.16,12-26.53,26.16-26.61S605.76,1217.18,605.84,1231.37Z" transform="translate(-122.36 -193.14)"/><path class="cls-15" d="M291.37,487.68c12.8-1.38,25.49,11.49,25.31,25.53-.15,12.55-11.84,25.12-25.58,25.06-12.79-.06-25.48-11.8-25.31-25.84C266,499.87,277.65,486.26,291.37,487.68Z" transform="translate(-122.36 -193.14)"/><path class="cls-15" d="M499,480.69c14.72-1,27.84,11.38,27.91,25.69s-13,26.46-28.67,26.32c-14.83-.14-27.43-11.84-27.53-26.3C470.6,491.61,484.76,479.6,499,480.69Z" transform="translate(-122.36 -193.14)"/><path class="cls-16" d="M1038,527.75c3.51.13,5.12,2.23,5.08,5.15s-2,4.94-5.18,4.85a4.7,4.7,0,0,1-4.9-5.16A4.63,4.63,0,0,1,1038,527.75Z" transform="translate(-122.36 -193.14)"/><path class="cls-17" d="M768.16,1216.06a17,17,0,1,1-17.23,16.9A17.19,17.19,0,0,1,768.16,1216.06Z" transform="translate(-122.36 -193.14)"/><path class="cls-18" d="M579.69,1214.29c9.67.22,17.51,8.4,17.07,17.8a17.4,17.4,0,0,1-17.54,16.83c-9.66-.22-17.51-8.4-17.07-17.8A17.4,17.4,0,0,1,579.69,1214.29Z" transform="translate(-122.36 -193.14)"/><path class="cls-4" d="M291.16,496.84a16,16,0,1,1-15.9,15.82A15.92,15.92,0,0,1,291.16,496.84Z" transform="translate(-122.36 -193.14)"/><path class="cls-4" d="M498.91,490.77c9.27,0,15.65,6.79,15.71,16.71,0,7.29-7.3,14.78-14.65,14.94-10,.21-17-6.36-17-15.93S489.25,490.76,498.91,490.77Z" transform="translate(-122.36 -193.14)"/><path class="cls-19" d="M768,1218.13a15,15,0,1,1-14.86,15.34A14.89,14.89,0,0,1,768,1218.13Z" transform="translate(-122.36 -193.14)"/><path class="cls-20" d="M579.52,1216.48a15.12,15.12,0,1,1-15.18,15.19A15.21,15.21,0,0,1,579.52,1216.48Z" transform="translate(-122.36 -193.14)"/></svg>